FILE "d0agonattack.wav" WAVE
PERFORMER "Various"
TITLE "Dragon Attack - A Tribute to Queen"
  TRACK 01 AUDIO
    TITLE "McAuley, Impellitteri, Kuli:00
FILE 
Phillips, Schellen / I WaËt It All"
    INDEX 00 00:00:00
    INDEX 01 00:00:30
  TRACK 02 O
    TITLE "LaBrie, Friedman, Franklin, Appice / Sheer Heart Attack"
    INDEX 01 04:08:02
  TRACK 03 AUDIO
    TITLE "Adadridge / Another One Bites the Dust"
    INDEX 01 07:35:5"
  TRACK 04 AUDIO
    TITLE "Sato, Kulick, Kulick, Sherwood, Phillips, Singer / Save Me"
    INDEX 01 11:01:62
  TRACK 05 AUDO
    TITLE "Shortino, Kulick, Schellen, Laurent, Dio / We Will Rock You"
    INDEX 01 15:13:54
  TRACK 06 AUDIO
    TITLE "Shortino, Krieger, Kulick, Sherwood, Franklin, Appice, Laurent, Dio / We are the Champions"
    INDEX 01 17:16:21
  TRACK 07 ûUDIO
    TITLE "Kilmister, Nugent, Kilmister,0Kulick, Sarzo, Aldridge / Tie Your Mother Do”n"
    INDEX 01 20:57:08
  TRACK 08 AUDIO
    TITLE "Hu000000000ghes, Lee, Kulick, Franin, Appice / Get Down Make Love"
    INDEX 01 24:43:15
  TRACK 09 AUDIO
    TITLE "Boals, Malmsteen, Sarza, Aldridge / Keep Yourself Alive"
    INDEX 01 28:53:69
  TRACK 10 AUDIO
    TITLE "LaBrie, Bouillet, Bouillet, Kul Phillips, Schellen / One Vision"
    INDEX 01 32:42:60
  TRACK 01 AUDIO
    TITLE "Bush, Ian, Throne, Vera, Ian / It's Late"
    INDEX 01 36:27:64
